<?xml version="1.0" encoding="utf-8"?>
<!-- Generator: Adobe Illustrator 24.1.2, SVG Export Plug-In . SVG Version: 6.00 Build 0)  -->
<svg version="1.1" id="Слой_1" xmlns="http://www.w3.org/2000/svg" xmlns:xlink="http://www.w3.org/1999/xlink" x="0px" y="0px"
	 viewBox="0 0 1500 1735" style="enable-background:new 0 0 1500 1735;" xml:space="preserve">
<style type="text/css">
	.st0{fill:#E62F29;}
</style>
<g>
	<path class="st0" d="M955,799.35l44-70l73,24l49-13l9,9l-48,52l-39,18c0,0-5,9-16,3L955,799.35z"/>
</g>
<g>
	<path d="M1034.14,826.43c-2.27,0-4.91-0.61-7.93-2.23l-74.28-23.73l46.21-73.51l73.92,24.3l49.54-13.14l11.17,11.17L1083.2,803
		l-38.85,17.93C1043.26,822.47,1039.9,826.43,1034.14,826.43z M958.07,798.23l69.72,22.27l0.17,0.09c8.91,4.86,12.88-1.49,13.3-2.23
		l0.32-0.55l0.59-0.28l38.64-17.83l46.43-50.3l-6.83-6.83l-48.46,12.86l-72.08-23.7L958.07,798.23z"/>
</g>
<g>
	<path d="M1348.02,491.85H966.91l-0.36-1.55c-0.59-2.54-0.38-6.51,3.96-10.97c8.74-9,31.04-15.91,43.39-13.44
		c10.82,2.16,22.53-6.03,27.06-9.65c3.25-2.59,6.79-4.57,10.55-5.88c8.4-2.93,24.69-5.64,39.41,9.08c4.11,4.11,8.63,6.08,13.45,5.84
		c10.12-0.49,19.69-10.37,24.49-16.22c3.77-4.59,8.58-8.37,13.91-10.95c29.2-14.14,50.94-8.67,66.44,16.7
		c3.5,5.73,7.19,8.92,11.27,9.78c6.43,1.34,13.33-3.49,18.88-7.37c9.76-6.84,25.81-8.52,41.56,7.22c9.11,9.11,17.11,7.19,21.08,5.24
		c3.95-1.95,7.86-3.15,11.63-3.59c27.3-3.2,33.77,23.05,33.83,23.32L1348.02,491.85z M970.32,487.85h372.46
		c-2.16-5.89-9.42-20.05-28.7-17.8c-3.31,0.39-6.78,1.47-10.32,3.21c-3.96,1.95-14.4,5.28-25.67-6c-14-14-28-12.68-36.44-6.78
		c-6.18,4.32-13.87,9.71-21.99,8.01c-5.22-1.09-9.76-4.89-13.87-11.6c-9.08-14.86-25.31-32.6-61.29-15.18
		c-4.81,2.33-9.16,5.75-12.56,9.89c-6.38,7.76-16.31,17.13-27.39,17.67c-5.98,0.29-11.53-2.07-16.47-7.01
		c-12.52-12.52-26.09-11.33-35.26-8.13c-3.33,1.16-6.48,2.92-9.37,5.23c-4.97,3.97-17.88,12.94-30.35,10.45
		c-11.08-2.21-31.88,4.22-39.73,12.31C971.46,484.1,970.43,486.02,970.32,487.85z"/>
</g>
<g>
	<path d="M427.07,869.88l-202.78-2.05l0.22-2.18c0.53-5.27,5.65-11.77,13.05-16.56c9.71-6.29,20.49-8.16,29.57-5.13
		c16.5,5.5,23.75-0.28,34.72-16.24c5.56-8.08,13.47-12.39,21.7-11.82c6.11,0.42,11.5,3.59,13.74,8.06c1.72,3.44,5.76,4.57,8.02,4.93
		c5.23,0.85,10.89-0.57,13.78-3.45c2.38-2.38,6.08-3.11,10.69-2.11c7.05,1.53,16.21,7.45,18.6,13.82
		c2.88,7.67,8.54,10.58,18.96,9.71c13.53-1.12,18.89,19.62,19.11,20.51L427.07,869.88z M229.04,863.87l192.74,1.95
		c-1.71-4.99-6.28-15.65-14.12-14.98c-12.19,1.02-19.51-2.89-23.04-12.29c-1.69-4.51-9.17-9.9-15.7-11.32
		c-1.84-0.4-5.19-0.79-7.02,1.03c-3.79,3.79-10.72,5.63-17.25,4.57c-5.2-0.84-9.09-3.36-10.96-7.09c-1.59-3.18-5.78-5.53-10.43-5.85
		c-6.79-0.49-13.4,3.21-18.13,10.09c-11.69,17.01-20.56,24.01-39.28,17.76c-11.25-3.75-22.02,2.04-26.13,4.7
		C234.49,855.84,230.48,860.18,229.04,863.87z"/>
</g>
<g>
	<path d="M674.9,572.3c-2.19,0-3.75-0.41-4.23-0.56l-26.75-6.93c-2.08-0.27-22.9-2.82-45.18-0.96c-22.98,1.91-35.35-2.42-37.18-3.13
		c-32.51-8.43-57.08-32.34-65.73-64c-10.01-36.6,2.53-76.97,33.54-107.98c21-21,44.73-30.88,70.56-29.36
		c36.1,2.12,68.79,27.27,80.92,42.63c15.65,19.82,15.65,43.93,15.65,51.86c0,6.88,1.58,14.7,1.88,16.12
		c1.34,3.34,14.09,35.32,16.99,45.02c3.05,10.16,1.35,15.79,0.96,16.85c-8.32,25.88-35.38,39.17-36.53,39.72l-0.28,0.13l-0.3,0.07
		C677.63,572.16,676.16,572.3,674.9,572.3z M672.45,566c0,0,2.15,0.64,5.02,0.01c2.79-1.43,26.09-13.94,33.18-36.08l0.07-0.2l0,0
		c0,0,1.5-4.38-1.09-13.02c-2.93-9.76-16.77-44.4-16.91-44.75l-0.14-0.46c-0.08-0.38-2.07-9.42-2.07-17.65
		c0-7.41,0-29.96-14.35-48.14c-7.7-9.76-38.3-38.11-76.56-40.35c-24.04-1.41-46.23,7.88-65.96,27.62
		c-29.47,29.47-41.43,67.66-32,102.15c8.1,29.62,31.13,51.98,61.62,59.82l0.41,0.14c0.1,0.04,11.77,4.68,34.6,2.78
		c24.05-2,45.74,0.89,46.65,1.02l0.35,0.07L672.45,566L672.45,566z M677.2,566.15L677.2,566.15L677.2,566.15z"/>
</g>
<g>
	<path d="M718.64,602.11c-1.92,0-4.33-0.32-6.25-1.59c-1.88-1.25-4.42-3.54-6.23-5.24c-1.63-1.54-2.41-3.72-2.08-5.85
		c0.02-0.16,0.22-1.53-0.22-1.68c-0.84-0.28-2.4,0.04-3.78,0.32c-2.41,0.5-5.14,1.06-7-0.81c-1.97-1.97-1.24-4.93-0.7-7.09
		c0.07-0.29,0.17-0.67,0.23-0.99c-0.46-0.12-1.07-0.25-1.57-0.35c-2.06-0.43-4.63-0.96-6.65-2.32c-3.4-2.27-5.59-6.59-5.68-6.77
		l3.58-1.79c0.02,0.03,1.81,3.56,4.32,5.23c1.38,0.92,3.53,1.37,5.25,1.73c1.86,0.39,3.2,0.67,4.05,1.52
		c1.21,1.21,0.79,2.91,0.35,4.7c-0.2,0.8-0.72,2.93-0.35,3.3c0.34,0.34,2.39-0.08,3.37-0.28c1.87-0.38,3.99-0.82,5.85-0.2
		c1.1,0.37,3.59,1.69,2.91,6.08c-0.13,0.82,0.2,1.69,0.87,2.33c2.39,2.25,4.41,3.97,5.7,4.82c1.83,1.22,5.17,0.94,6.41,0.72
		c18.27-5.56,28.68-30.91,29.45-34.01c-0.74-1.83-6.31-7.05-8.97-7.05c-6,0-6-7.01-6-10c0-0.79-1.89-1.7-3.23-2
		c-2.36-0.09-6.72-1.55-7.73-6.6c-0.67-3.35-5.3-6.66-7.03-7.66l1.99-3.47c0.8,0.46,7.82,4.62,8.97,10.34
		c0.65,3.23,3.71,3.39,4.06,3.39l0.37,0.04c0.68,0.14,6.61,1.45,6.61,5.96c0,4.43,0.52,6,2,6c4.71,0,13,7.59,13,11
		c0,2.67-11.55,31.65-32.43,37.92l-0.18,0.05C721.62,601.87,720.31,602.11,718.64,602.11z M750.52,564.04L750.52,564.04
		L750.52,564.04z"/>
</g>
<g>
	<path d="M692.37,561.08c-7.27-13.92-68.37-55.84-98.74-71.65c-5.24,4.02-10.63,6.47-15.92,4.88c-6.11-1.83-10.66-6.25-9.94-9.65
		c0.36-1.72,2.32-4.43,11.35-3.3c2.93,0.37,7.98,2.46,14.29,5.7c3.65-2.95,7.26-6.65,10.69-10.16c1.09-1.12,2.15-2.21,3.19-3.25
		c4.13-4.13,7.75-10.12,10.38-15.8c-2.29-3.47-3.89-6.58-4.63-9.22c-2.29-8.19-2.49-13.07-0.6-14.91c0.57-0.56,1.6-1.11,3.27-0.59
		c3.42,1.06,7.7,6.15,8.27,9.04c0.55,2.77-1.06,8.95-4.01,15.55c20.1,29.37,89.18,84.52,89.96,85.14l-1.25,1.56
		c-3.16-2.52-68.68-54.83-89.69-84.62c-2.71,5.6-6.31,11.29-10.29,15.27c-1.03,1.03-2.09,2.12-3.18,3.23
		c-3.26,3.34-6.68,6.85-10.19,9.77c12.43,6.54,29.08,16.94,44.07,27.07c23.33,15.78,49.96,35.89,54.73,45.02L692.37,561.08z
		 M575.17,483.08c-3.64,0-5.22,0.93-5.44,1.98c-0.44,2.07,3.21,5.72,8.56,7.33c4.27,1.28,8.83-0.65,13.37-3.98
		c-5.78-2.92-10.27-4.75-12.78-5.07C577.46,483.16,576.23,483.08,575.17,483.08z M614.46,434.91c-0.39,0-0.56,0.16-0.63,0.23
		c-0.46,0.45-1.74,2.7,1.13,12.94c0.61,2.19,1.88,4.75,3.67,7.59c2.48-5.86,3.8-11.07,3.39-13.13c-0.44-2.21-4.29-6.71-6.9-7.52
		C614.85,434.94,614.63,434.91,614.46,434.91z"/>
</g>
<g>
	<polygon points="769.95,477.89 842.5,471.85 771.05,485.81 	"/>
</g>
<g>
	<polygon points="750.42,372.43 821.5,333.85 754.58,379.27 	"/>
</g>
<g>
	<polygon points="667.7,281.61 695.5,208.85 675.3,284.08 	"/>
</g>
<g>
	<polygon points="553.58,278.64 542.5,203.85 561.42,277.05 	"/>
</g>
<g>
	<polygon points="422.55,352.34 354.5,309.85 426.45,345.35 	"/>
</g>
<g>
	<polygon points="394.5,475.85 317.5,471.85 394.5,467.85 	"/>
</g>
<g>
	<polygon points="465.93,600.02 399.5,645.85 461.07,593.67 	"/>
</g>
<g>
	<polygon points="554.44,636.54 538.5,703.85 546.56,635.15 	"/>
</g>
<g>
	<polygon points="667.43,639.11 676.5,708.85 659.57,640.59 	"/>
</g>
<g>
	<g>
		<path d="M844.24,677.05c-1.72,1.15-3.08,2.94-4.13,4.69c-2.68,4.46-3.54,9.84-3.33,14.98c0.2,4.78,1.28,9.49,2.77,14.03
			c0.62-0.62,1.23-1.23,1.85-1.85c-1.38-0.19-2.76-0.54-4.1-0.92c-3.36-0.95-6.02-2.04-9.02-3.75
			c-8.29-4.71-13.95-12.67-14.84-22.42c-0.82-8.94,1.68-17.86,5.01-26.06c-0.62,0.35-1.23,0.7-1.85,1.05
			c5.76,1.63,11.73,2.68,17.65,3.54c12.68,1.84,25.62,2.45,38.35,0.71c7.66-1.05,15.18-3.04,22.16-6.4
			c-0.73-0.56-1.47-1.13-2.2-1.69c-0.11,0.36-0.24,0.72-0.37,1.08c-0.15,0.4-0.3,0.8-0.46,1.2c-0.09,0.24-0.19,0.48-0.29,0.72
			c-0.22,0.53-0.05,0.15-0.28,0.66c-1.36,3.1-2.95,6.1-4.82,8.93c-4.88,7.37-11.92,13.54-20.86,15.04
			c-6.73,1.13-13.64-0.67-19.72-3.52c-1.74-0.81-3.26,1.77-1.51,2.59c5.94,2.78,12.46,4.66,19.08,4.18
			c5.16-0.37,10.12-2.13,14.39-5.04c6.98-4.77,12.08-11.99,15.56-19.6c0.81-1.77,1.59-3.58,2.17-5.44c0.42-1.34-1.09-2.23-2.2-1.69
			c-12.07,5.79-25.85,7.27-39.09,6.99c-10.36-0.21-20.7-1.52-30.82-3.71c-1.99-0.43-3.98-0.88-5.94-1.43
			c-0.85-0.24-1.54,0.3-1.85,1.05c-5.19,12.79-8.39,28.57-0.5,40.99c4.6,7.23,12.15,12.01,20.21,14.56
			c1.73,0.55,3.53,1.05,5.33,1.29c1.04,0.14,2.24-0.64,1.85-1.85c-2.15-6.51-3.6-13.68-2.12-20.51c0.42-1.96,1.07-3.85,2.04-5.61
			c0.75-1.36,1.32-2.16,2.29-3.18c0.31-0.33,0.65-0.62,0.98-0.92c0.35-0.32-0.27,0.17,0.12-0.09
			C847.35,678.57,845.85,675.97,844.24,677.05z"/>
	</g>
</g>
<g>
	<g>
		<path d="M877.82,676.64c2.5,3.4,4.73,7.03,6.84,10.68c4.26,7.37,8.02,15.17,10.22,23.42c2.04,7.63,2.92,16.58-1.73,23.46
			c-2.93,4.34-8,7.25-12.77,9.11c-4.9,1.91-10.23,2.6-15.37,1.3c-3.7-0.93-7.16-2.78-10.09-5.21c-1.08-0.9-2.11-1.87-3.06-2.91
			c-0.33-0.36-0.65-0.73-0.97-1.11c-0.12-0.14-0.23-0.29-0.35-0.43c0,0,0.16,0.22-0.07-0.09c-0.06-0.09-0.13-0.17-0.19-0.26
			c-1.08-1.58-3.68-0.08-2.59,1.51c3.13,4.58,8.04,8.21,13.12,10.28c4.75,1.94,9.95,2.34,14.97,1.38
			c6.08-1.16,12.45-4.26,16.96-8.52c6.64-6.27,7.57-15.61,6.14-24.18c-1.52-9.09-5.36-17.77-9.72-25.83
			c-2.59-4.78-5.41-9.51-8.61-13.91c-0.05-0.07-0.1-0.15-0.16-0.22C879.28,673.58,876.67,675.08,877.82,676.64L877.82,676.64z"/>
	</g>
</g>
<g>
	<path d="M544.79,1233.35H325.21c-2.87,0-5.21-2.34-5.21-5.21v-17.58c0-2.87,2.34-5.21,5.21-5.21h219.58c2.87,0,5.21,2.34,5.21,5.21
		v17.58C550,1231.01,547.66,1233.35,544.79,1233.35z M326,1227.35h218v-16H326V1227.35z"/>
</g>
<g>
	<path d="M438.5,1537.85c-21.32,0-53.41-7.17-62.74-9.37c-3.01-0.71-5.23-3.25-5.54-6.32l-29.31-291.51l5.97-0.6l29.31,291.51
		c0.05,0.53,0.44,0.96,0.95,1.08c9.17,2.16,40.69,9.21,61.37,9.21c13.82,0,27.78-0.9,38.31-2.47c15.89-2.37,19.14-5.49,19.75-6.36
		l25.5-292.93l5.98,0.52l-25.58,293.91l-0.14,0.38C497.8,1536.92,452.33,1537.85,438.5,1537.85z"/>
</g>
<g>
	<path d="M530.33,1209.29l-9.9-30.09c-0.65-1.99-2.5-3.32-4.59-3.32c-0.01,0-0.02,0-0.03,0l-164.57,0.94
		c-2.13,0.01-4.01,1.38-4.68,3.41l-9.51,29.05l-5.7-1.87l9.51-29.06c1.47-4.49,5.62-7.52,10.34-7.54l164.57-0.94
		c0.02,0,0.04,0,0.06,0c4.69,0,8.82,2.98,10.29,7.44l9.9,30.09L530.33,1209.29z"/>
</g>
<g>
	<g>
		<path d="M375.27,1173.29c-0.67-1.77-1.34-3.54-2.01-5.31c-1.82-4.82-3.65-9.63-5.47-14.45c-2.71-7.16-5.42-14.32-8.13-21.47
			c-3.3-8.7-6.59-17.4-9.89-26.1c-3.61-9.53-7.22-19.05-10.83-28.58c-3.64-9.62-7.29-19.23-10.93-28.85
			c-3.4-8.97-6.79-17.93-10.19-26.9c-2.87-7.58-5.74-15.16-8.61-22.73c-2.06-5.45-4.13-10.9-6.19-16.35
			c-0.98-2.58-1.94-5.18-2.94-7.75c-0.04-0.11-0.08-0.22-0.13-0.34c-0.36-0.96-1.27-1.34-2.2-0.9c-5.67,2.67-11.33,5.33-17,8
			c-0.54,0.25-0.92,1.13-0.69,1.69c0.69,1.71,1.38,3.42,2.07,5.13c1.87,4.63,3.74,9.26,5.61,13.89c2.76,6.84,5.52,13.68,8.29,20.52
			c3.37,8.34,6.74,16.69,10.11,25.03c3.71,9.18,7.41,18.36,11.12,27.53c3.73,9.23,7.45,18.45,11.18,27.68
			c3.47,8.6,6.95,17.21,10.42,25.81c2.94,7.27,5.87,14.55,8.81,21.82c2.12,5.25,4.24,10.5,6.36,15.76c1,2.48,1.99,4.96,3,7.43
			c0.04,0.11,0.09,0.21,0.13,0.32c0.71,1.77,3.62,1,2.89-0.8c-0.69-1.71-1.38-3.42-2.07-5.13c-1.87-4.63-3.74-9.26-5.61-13.89
			c-2.76-6.84-5.52-13.68-8.29-20.52c-3.37-8.34-6.74-16.69-10.11-25.03c-3.71-9.18-7.41-18.36-11.12-27.53
			c-3.73-9.23-7.45-18.45-11.18-27.68c-3.47-8.6-6.95-17.21-10.42-25.81c-2.94-7.27-5.87-14.55-8.81-21.82
			c-2.12-5.25-4.24-10.5-6.36-15.76c-0.99-2.44-1.81-5.08-3-7.43c-0.05-0.1-0.09-0.22-0.13-0.32c-0.23,0.56-0.46,1.13-0.69,1.69
			c5.67-2.67,11.33-5.33,17-8c-0.73-0.3-1.47-0.6-2.2-0.9c0.67,1.77,1.34,3.54,2.01,5.31c1.82,4.82,3.65,9.63,5.47,14.45
			c2.71,7.16,5.42,14.32,8.13,21.47c3.3,8.7,6.59,17.4,9.89,26.1c3.61,9.53,7.22,19.05,10.83,28.58
			c3.64,9.62,7.29,19.23,10.93,28.85c3.4,8.97,6.79,17.93,10.19,26.9c2.87,7.58,5.74,15.16,8.61,22.73
			c2.06,5.45,4.13,10.9,6.19,16.35c0.98,2.58,1.94,5.18,2.94,7.75c0.04,0.11,0.08,0.22,0.13,0.34
			C373.06,1175.87,375.96,1175.1,375.27,1173.29L375.27,1173.29z"/>
	</g>
</g>
<g>
	<path d="M746.79,980.28l-21.04-14.03l0.3-1.34c41.31-185.91,59.34-199.03,74.28-196.54c11.2,1.86,35.5-10.67,35.75-10.8l1.2-0.62
		l1.03,0.88c9.39,8.05,22.81,8.28,39.89,0.69c9.71-4.32,21.16,0.79,21.64,1.01l0.23,0.1l20.06,16.05l35.85,19.92l-1.94,3.5
		l-36.15-20.08l-19.92-15.94c-1.5-0.62-10.74-4.19-18.15-0.9c-18.01,8-32.49,7.85-43.07-0.45c-5.22,2.6-25.95,12.45-37.07,10.6
		c-3.79-0.63-10.84-1.8-22.59,24.71c-12.92,29.14-28.24,83.91-46.83,167.41l14.96,9.97l38.09-78.13l0.13-0.17
		c0.37-0.46,36.63-46.91,38.57-80.88l3.99,0.23c-1.97,34.51-36.47,79.34-39.29,82.95L746.79,980.28z"/>
</g>
<g>
	<path d="M743.98,996.38l-75.15-1.04l-0.57-0.99c-5.31-9.3-2-14.16,0.44-16.22c2.35-1.99,5.53-2.86,8.71-2.38
		c24.53,3.69,52.26-10.13,52.53-10.27l1.8,3.57c-1.18,0.59-29.13,14.54-54.93,10.65c-2.05-0.31-4.06,0.23-5.54,1.48
		c-2.49,2.1-2.52,5.53-0.09,10.2l68.83,0.96l0.2-17.51l4,0.04L743.98,996.38z"/>
</g>
<g>
	<path d="M956.21,840.13c-6.02,0-10.1-1.57-10.89-1.9l-45.9-13.97l1.16-3.83l46.23,14.09c0.08,0.03,8.43,3.58,19.41-0.02
		l39.79-20.34l1.82,3.56l-40.2,20.53C963.39,839.66,959.51,840.13,956.21,840.13z"/>
</g>
<g>
	<path d="M879.77,934.28l-3.54-1.87c18.57-35.18,21.74-138.09,21.77-139.12l4,0.12C901.88,797.67,898.77,898.29,879.77,934.28z"/>
</g>
<g>
	<path d="M804,958.35c-4.17,0-9.74-2.64-12.62-15.2c-0.99-4.31-1.41-8.93-1.25-13.72l1.5-44.11l4,0.14l-1.5,44.11
		c-0.15,4.45,0.23,8.72,1.15,12.69c1.27,5.52,3.81,12.09,8.72,12.09V958.35z"/>
</g>
<g>
	<path d="M1081.3,1045.61l-1.02-0.39c-84.24-32.24-118.41-63.16-118.7-63.45c-0.93-0.93-1.07-2.2-1.24-3.68
		c-0.45-3.88-1.12-9.74-17.34-9.74c-22.15,0-63.5,26.42-63.92,26.68l-0.49,0.32h-63.94l-0.33-0.12C802,990.75,802,970.32,802,959.35
		c0-9.27,8.23-12.53,12.7-12.98c4.21-0.89,118.46-25.08,139.95-28.99c22.1-4.02,32.72,7.34,33.81,8.59l110.64,106.58L1081.3,1045.61
		z M964.53,979.04c2.2,1.97,35.89,31.19,116.17,62.05l12.2-8.95L985.53,928.71l-0.07-0.08c-0.38-0.45-9.62-11.03-30.11-7.31
		c-21.72,3.95-138.76,28.74-139.94,28.99l-0.23,0.03c-0.39,0.04-9.19,1-9.19,9.01c0,9.18,0,28.18,9.37,32h62.05
		c5.05-3.2,43.36-27,65.58-27c19.79,0,20.82,8.97,21.32,13.28C964.37,978.11,964.45,978.75,964.53,979.04z"/>
</g>
<g>
	<path d="M1120.85,1076.66c-9.48,0-13.58-4.8-15.07-7.31l0,0c-0.39-0.67-0.87-1.37-1.49-2.23c-4.03-5.57-4.64-10.25-1.7-13.19
		c3.9-3.9,47.66-26.63,69.51-25.58c8.27,0.39,12.98,2.35,14.38,5.99c1.72,4.46-2.57,8.93-3.07,9.42l-0.18,0.16
		c-1.36,1.07-33.55,26.32-52.73,31.36C1126.79,1076.26,1123.59,1076.66,1120.85,1076.66z M1109.21,1067.31
		c1.46,2.46,6.36,7.77,20.28,4.1c17.87-4.7,49.13-28.96,51.17-30.56c0.82-0.87,2.74-3.39,2.09-5.08c-0.35-0.89-2.1-3.01-10.84-3.43
		c-0.44-0.02-0.9-0.03-1.36-0.03c-20.85,0-61.58,20.9-65.13,24.45c-1.99,1.99,1.11,6.64,2.11,8.01
		C1108.22,1065.73,1108.75,1066.54,1109.21,1067.31L1109.21,1067.31z"/>
</g>
<g>
	<path d="M1119.85,1044c-7.8,0-17.56-1.79-27.31-8.26l2.21-3.33c19.49,12.95,39.63,5.26,39.83,5.18l1.47,3.72
		C1135.58,1041.5,1129.08,1044,1119.85,1044z"/>
</g>
<g>
	<rect x="1090.95" y="1036.99" transform="matrix(0.6078 -0.7941 0.7941 0.6078 -404.86 1279.6144)" width="4" height="25.32"/>
</g>
<g>
	<path d="M905.19,1088.3c-8.13,0-16.41-2.91-16.86-3.07l-1.58-0.56l15.28-91.65l3.95,0.66l-14.72,88.3
		c3.66,1.1,12.88,3.48,19.4,1.69c4.65-8.15,48.63-85.75,49.93-104.29l3.99,0.28c-1.43,20.39-48.83,103.18-50.85,106.69l-0.38,0.66
		l-0.72,0.24C910.33,1088.01,907.77,1088.3,905.19,1088.3z"/>
</g>
<g>
	<path d="M948.36,1147.35l-0.39,0l-77.41-1.03l4.46-22.29c1.02-7.72,9.58-9.06,14.06-8.68h30.27l0.33,0.12
		c0.19,0.07,19.27,7.12,33.2,14.09c4.4,2.2,6.57,4.82,6.43,7.77c-0.26,5.58-8.88,9.21-10.6,9.88L948.36,1147.35z M875.43,1142.38
		l72.19,0.96c3.18-1.31,7.61-4.06,7.7-6.2c0.05-1.18-1.49-2.64-4.22-4c-12.73-6.37-29.88-12.82-32.46-13.79l-29.82-0.01
		c-0.39-0.03-9.09-0.71-9.84,5.26l-0.02,0.14L875.43,1142.38z"/>
</g>
<g>
	<rect x="891.69" y="1099.81" transform="matrix(0.0435 -0.9991 0.9991 0.0435 -232.9836 1960.2776)" width="31.03" height="4"/>
</g>
<g>
	<path d="M881.05,1117.78c-2.1-9.43,9.03-31.62,10.3-34.11l3.56,1.82c-3.28,6.44-11.47,24.63-9.96,31.43L881.05,1117.78z"/>
</g>
<g>
	<rect x="448.73" y="1028.85" width="4" height="80"/>
</g>
<g>
	<path d="M956.56,1144.85H432.74c-6.75,0-12.24-5.49-12.24-12.24v-13.52c0-6.75,5.49-12.24,12.24-12.24h450.9v4h-450.9
		c-4.54,0-8.24,3.7-8.24,8.24v13.52c0,4.54,3.7,8.24,8.24,8.24h523.83c3.82,0,6.94-3.11,6.94-6.94v-129.66
		c0-3.64-2.32-6.85-5.78-7.99l1.25-3.8c5.1,1.67,8.53,6.41,8.53,11.79v129.66C967.5,1139.94,962.59,1144.85,956.56,1144.85z"/>
</g>
<g>
	<polygon points="937.5,1110.85 906.53,1110.85 906.53,1106.85 933.5,1106.85 933.5,1041.85 937.5,1041.85 	"/>
</g>
<g>
	<path d="M898.5,1030.85H430.81c-6.79,0-12.31-5.52-12.31-12.31v-13.39c0-6.79,5.52-12.31,12.31-12.31H903.5v4H430.81
		c-4.58,0-8.31,3.73-8.31,8.31v13.39c0,4.58,3.73,8.31,8.31,8.31H898.5V1030.85z"/>
</g>
<g>
	<path d="M1031.77,1202.85H530.71v-4h501.06c5.36,0,9.73-4.36,9.73-9.73v-31.55c0-5.36-4.36-9.73-9.73-9.73H390.23
		c-5.36,0-9.73,4.36-9.73,9.73v16.2h-4v-16.2c0-7.57,6.16-13.73,13.73-13.73h641.55c7.57,0,13.73,6.16,13.73,13.73v31.55
		C1045.5,1196.69,1039.34,1202.85,1031.77,1202.85z"/>
</g>
<g>
	<rect x="543.63" y="1171.85" transform="matrix(4.394489e-03 -1 1 4.394489e-03 -604.7202 1740.3138)" width="56" height="4"/>
</g>
<g>
	<rect x="557.37" y="1170.85" transform="matrix(4.394489e-03 -1 1 4.394489e-03 -590.0389 1753.0598)" width="56" height="4"/>
</g>
<g>
	<rect x="597.37" y="1170.85" transform="matrix(4.394489e-03 -1 1 4.394489e-03 -550.2147 1793.0593)" width="56" height="4"/>
</g>
<g>
	<rect x="610.37" y="1171.85" transform="matrix(4.394489e-03 -1 1 4.394489e-03 -538.2718 1807.0548)" width="56" height="4"/>
</g>
<g>
	<rect x="515.69" y="1335.85" width="337.81" height="4"/>
</g>
<g>
	<path d="M934.87,1339.85H913.5v-4h21.37c20.75,0,37.63-16.88,37.63-37.63v-57.75c0-20.75-16.88-37.63-37.63-37.63H530.71v-4h404.16
		c22.95,0,41.63,18.67,41.63,41.63v57.75C976.5,1321.17,957.83,1339.85,934.87,1339.85z"/>
</g>
<g>
	<g>
		<path d="M776.5,1254.35c5.19,0,10.37,0,15.56,0c12.45,0,24.9,0,37.35,0c14.97,0,29.93,0,44.9,0c13.01,0,26.02,0,39.02,0
			c6.29,0,12.63,0.22,18.92,0c0.08,0,0.17,0,0.25,0c1.93,0,1.93-3,0-3c-5.19,0-10.37,0-15.56,0c-12.45,0-24.9,0-37.35,0
			c-14.97,0-29.93,0-44.9,0c-13.01,0-26.02,0-39.02,0c-6.29,0-12.63-0.22-18.92,0c-0.08,0-0.17,0-0.25,0
			C774.57,1251.35,774.57,1254.35,776.5,1254.35L776.5,1254.35z"/>
	</g>
</g>
<g>
	<path d="M941.5,1324.85h-26v-4h26c7.54,0,13.6-7.63,17.06-21.49c2.48-9.94,1.77-20.14,0.94-31.95c-0.47-6.67-1-14.22-1-22.56
		c0-20.14-16.2-24.53-18.22-25L547,1219.56l0-4l393.7,0.29l0.19,0.04c0.22,0.04,21.61,4.6,21.61,28.96c0,8.2,0.5,15.36,0.99,22.28
		c0.85,12.15,1.59,22.65-1.05,33.21C957.38,1320.6,948.26,1324.85,941.5,1324.85z"/>
</g>
<g>
	<rect x="517" y="1320.85" width="337.5" height="4"/>
</g>
<g>
	<g>
		<path d="M845.19,1254.14c0.39,0.19,0.75,0.43,1.1,0.67c0.18,0.12,0.36,0.25,0.54,0.38c0.04,0.03,0.38,0.28,0.19,0.14
			c-0.17-0.13,0.19,0.15,0.25,0.2c0.53,0.44,1.05,0.9,1.54,1.38c2.92,2.88,5.04,6.52,6.43,10.45c4.39,12.41,1.54,25.61,0.07,38.28
			c-1.59,13.7-2.91,27.44-3.78,41.21c-0.97,15.28-1.45,30.63-0.77,45.94c0.58,12.98,1.75,26.39,5.92,38.78
			c0.42,1.24,0.88,2.48,1.37,3.69c0.37,0.9,1.27,1.41,2.2,0.9c8.46-4.67,16.92-9.33,25.37-14c1.21-0.67,2.42-1.33,3.63-2
			c-0.5,0-1.01,0-1.51,0c9.06,4.68,18.13,9.36,27.19,14.03c1.27,0.66,2.54,1.31,3.81,1.97c1.2,0.62,2.47-0.4,2.2-1.69
			c-2.32-11.34-4.11-22.83-5.54-34.32c-1.21-9.69-2.13-19.45-2.36-29.22c-0.26-10.94,0.44-21.91,1.53-32.79
			c0.85-8.45,1.98-16.88,3.37-25.26c0.36-2.17,0.71-4.34,1.19-6.49c2.02-8.88,3.34-18.07,3.47-27.19
			c0.13-9.28-0.76-23.23-11.07-27.07c-1.18-0.44-2.42-0.66-3.67-0.78c-1.92-0.18-1.91,2.82,0,3c4.44,0.43,7.48,3.42,9.22,7.47
			c2.03,4.73,2.46,10.17,2.52,15.28c0.1,9.34-1.21,18.75-3.23,27.86c-2.04,9.22-3.19,18.68-4.26,28.05
			c-1.25,10.93-2.09,21.93-2.13,32.93c-0.04,9.59,0.71,19.17,1.76,28.7c1.48,13.38,3.53,26.73,6.16,39.94
			c0.05,0.23,0.09,0.45,0.14,0.68c0.73-0.56,1.47-1.13,2.2-1.69c-8.91-4.6-17.82-9.2-26.72-13.79c-1.37-0.71-2.73-1.46-4.13-2.13
			c-1.22-0.59-2.18,0.21-3.22,0.78c-4.93,2.72-9.86,5.44-14.79,8.16c-4.22,2.33-8.43,4.65-12.65,6.98c0.73,0.3,1.47,0.6,2.2,0.9
			c-4.81-11.75-6.2-24.83-6.97-37.4c-0.93-15.34-0.57-30.76,0.3-46.1c0.8-14.17,2.1-28.3,3.69-42.4c0.61-5.34,1.26-10.68,1.94-16.02
			c0.99-7.68,1.12-15.57-0.89-23.11c-1.78-6.68-5.68-14.25-12.03-17.73c-0.09-0.05-0.19-0.11-0.29-0.15
			C844.98,1250.71,843.46,1253.3,845.19,1254.14L845.19,1254.14z"/>
	</g>
</g>
<g>
	<path d="M987.29,1519.85H500.11v-6h487.18c15.55,0,28.21-12.65,28.21-28.21v-116.59c0-15.55-12.65-28.21-28.21-28.21H913.5v-6
		h73.79c18.86,0,34.21,15.34,34.21,34.21v116.59C1021.5,1504.5,1006.15,1519.85,987.29,1519.85z"/>
</g>
<g>
	<rect x="515.69" y="1334.85" width="337.81" height="6"/>
</g>
<g>
	<path d="M980.72,1491.85H502.55v-6h478.18c5.88,0,10.66-4.78,10.66-10.66v-102.98c0-5.16-4.2-9.36-9.36-9.36h-70.41v-6h70.41
		c8.47,0,15.36,6.89,15.36,15.36v102.98C997.38,1484.37,989.91,1491.85,980.72,1491.85z"/>
</g>
<g>
	<rect x="513.78" y="1356.85" width="338.57" height="6"/>
</g>
</svg>
