<?xml version="1.0" encoding="utf-8"?>
<!-- Generator: Adobe Illustrator 24.1.2, SVG Export Plug-In . SVG Version: 6.00 Build 0)  -->
<svg version="1.1" id="Слой_1" xmlns="http://www.w3.org/2000/svg" xmlns:xlink="http://www.w3.org/1999/xlink" x="0px" y="0px"
	 viewBox="0 0 1500 1735" style="enable-background:new 0 0 1500 1735;" xml:space="preserve">
<style type="text/css">
	.st0{fill:#F12A29;}
</style>
<g>
	<polygon class="st0" points="723.74,1201.85 892.9,1075.27 944.65,1075.27 944.65,1151.14 760.52,1287.4 723.74,1287.4 	"/>
</g>
<g>
	<g>
		<path d="M944.65,1285.9c-1.97,0-3.94,0-5.91,0c-5.36,0-10.72,0-16.08,0c-7.93,0-15.86,0-23.79,0c-9.67,0-19.35,0-29.02,0
			c-10.55,0-21.11,0-31.66,0c-10.73,0-21.47,0-32.2,0c-9.93,0-19.86,0-29.8,0c-8.43,0-16.86,0-25.29,0c-6.06,0-12.12,0-18.18,0
			c-2.84,0-5.77-0.21-8.61,0c-0.12,0.01-0.25,0-0.37,0c0.5,0.5,1,1,1.5,1.5c0-1.9,0-3.79,0-5.69c0-5.13,0-10.27,0-15.4
			c0-7.62,0-15.25,0-22.87c0-9.26,0-18.53,0-27.79c0-10.19,0-20.37,0-30.56c0-10.24,0-20.48,0-30.73c0-9.59,0-19.18,0-28.77
			c0-8.07,0-16.14,0-24.22c0-5.83,0-11.66,0-17.49c0-2.72,0.21-5.54,0-8.26c-0.01-0.12,0-0.24,0-0.36c-0.5,0.5-1,1-1.5,1.5
			c1.97,0,3.94,0,5.91,0c5.36,0,10.72,0,16.08,0c7.93,0,15.86,0,23.79,0c9.67,0,19.35,0,29.02,0c10.55,0,21.11,0,31.66,0
			c10.73,0,21.47,0,32.2,0c9.93,0,19.87,0,29.8,0c8.43,0,16.86,0,25.29,0c6.06,0,12.12,0,18.18,0c2.84,0,5.77,0.21,8.61,0
			c0.12-0.01,0.25,0,0.37,0c-0.5-0.5-1-1-1.5-1.5c0,1.9,0,3.79,0,5.69c0,5.13,0,10.27,0,15.4c0,7.62,0,15.25,0,22.87
			c0,9.26,0,18.53,0,27.79c0,10.19,0,20.37,0,30.56c0,10.24,0,20.48,0,30.73c0,9.59,0,19.18,0,28.77c0,8.07,0,16.14,0,24.22
			c0,5.83,0,11.66,0,17.49c0,2.75-0.07,5.51,0,8.26c0,0.12,0,0.24,0,0.36c0,1.93,3,1.93,3,0c0-1.9,0-3.79,0-5.69
			c0-5.13,0-10.27,0-15.4c0-7.62,0-15.25,0-22.87c0-9.26,0-18.53,0-27.79c0-10.19,0-20.37,0-30.56c0-10.24,0-20.48,0-30.73
			c0-9.59,0-19.18,0-28.77c0-8.07,0-16.14,0-24.22c0-5.83,0-11.66,0-17.49c0-2.75,0.07-5.51,0-8.26c0-0.12,0-0.24,0-0.36
			c0-0.81-0.69-1.5-1.5-1.5c-1.97,0-3.94,0-5.91,0c-5.36,0-10.72,0-16.08,0c-7.93,0-15.86,0-23.79,0c-9.67,0-19.35,0-29.02,0
			c-10.55,0-21.11,0-31.66,0c-10.73,0-21.47,0-32.2,0c-9.93,0-19.86,0-29.8,0c-8.43,0-16.86,0-25.29,0c-6.06,0-12.12,0-18.18,0
			c-2.87,0-5.74-0.07-8.61,0c-0.12,0-0.25,0-0.37,0c-0.81,0-1.5,0.69-1.5,1.5c0,1.9,0,3.79,0,5.69c0,5.13,0,10.27,0,15.4
			c0,7.62,0,15.25,0,22.87c0,9.26,0,18.53,0,27.79c0,10.19,0,20.37,0,30.56c0,10.24,0,20.48,0,30.73c0,9.59,0,19.18,0,28.77
			c0,8.07,0,16.14,0,24.22c0,5.83,0,11.66,0,17.49c0,2.75-0.07,5.51,0,8.26c0,0.12,0,0.24,0,0.36c0,0.81,0.69,1.5,1.5,1.5
			c1.97,0,3.94,0,5.91,0c5.36,0,10.72,0,16.08,0c7.93,0,15.86,0,23.79,0c9.67,0,19.35,0,29.02,0c10.55,0,21.11,0,31.66,0
			c10.73,0,21.47,0,32.2,0c9.93,0,19.87,0,29.8,0c8.43,0,16.86,0,25.29,0c6.06,0,12.12,0,18.18,0c2.87,0,5.74,0.07,8.61,0
			c0.12,0,0.25,0,0.37,0C946.58,1288.9,946.58,1285.9,944.65,1285.9z"/>
	</g>
</g>
<g>
	<g>
		<path d="M967.87,1300.5c-29.95,0-59.9,0-89.85,0c-47.54,0-95.08,0-142.62,0c-10.94,0-21.89,0-32.83,0c2,2,4,4,6,6
			c0-28.47,0-56.93,0-85.4c0-45.32,0-90.65,0-135.97c0-10.34,0-20.67,0-31.01c-2,2-4,4-6,6c29.95,0,59.9,0,89.85,0
			c47.54,0,95.08,0,142.62,0c10.94,0,21.89,0,32.83,0c-2-2-4-4-6-6c0,28.47,0,56.93,0,85.4c0,45.32,0,90.65,0,135.97
			c0,10.34,0,20.67,0,31.01c0,7.72,12,7.73,12,0c0-28.47,0-56.93,0-85.4c0-45.32,0-90.65,0-135.97c0-10.34,0-20.67,0-31.01
			c0-3.24-2.75-6-6-6c-29.95,0-59.9,0-89.85,0c-47.54,0-95.08,0-142.62,0c-10.94,0-21.89,0-32.83,0c-3.24,0-6,2.75-6,6
			c0,28.47,0,56.93,0,85.4c0,45.32,0,90.65,0,135.97c0,10.34,0,20.67,0,31.01c0,3.24,2.75,6,6,6c29.95,0,59.9,0,89.85,0
			c47.54,0,95.08,0,142.62,0c10.94,0,21.89,0,32.83,0C975.59,1312.5,975.61,1300.5,967.87,1300.5z"/>
	</g>
</g>
<g>
	<path d="M954,1399.1l-0.74-7.97c9.25-0.85,18.47-1.42,27.4-1.67l0.23,8C972.13,1397.71,963.08,1398.26,954,1399.1z"/>
</g>
<g>
	<path d="M903.74,1406.36l-1.51-7.86c9.46-1.82,18.85-3.39,27.9-4.67l1.11,7.92C922.33,1403.02,913.07,1404.56,903.74,1406.36z"/>
</g>
<g>
	<path d="M854.42,1417.87l-2.09-7.72c9.19-2.48,18.27-4.76,27-6.78l1.8,7.79C872.5,1413.15,863.52,1415.41,854.42,1417.87z"/>
</g>
<g>
	<path d="M807.02,1432.05l-2.47-7.61c9-2.92,17.38-5.53,25.63-7.99l2.29,7.67C824.28,1426.55,815.96,1429.15,807.02,1432.05z"/>
</g>
<g>
	<path d="M758.39,1448.67l-2.66-7.54c7.79-2.75,17.08-6.02,26.86-9.36l2.59,7.57C775.43,1442.67,766.17,1445.92,758.39,1448.67z"/>
</g>
<g>
	<path d="M710.97,1465.14l-2.5-7.6c8.97-2.94,18.64-6.32,26.07-8.93l2.65,7.55C729.73,1458.78,720.01,1462.17,710.97,1465.14z"/>
</g>
<g>
	<path d="M661.76,1477.04l-0.52-7.98c6.48-0.42,14.59-1.96,24.8-4.71l2.08,7.72C677.39,1474.96,668.77,1476.58,661.76,1477.04z"/>
</g>
<g>
	<path d="M609.42,1482.39l-0.49-7.98c9.32-0.57,18.54-1.33,27.41-2.26l0.83,7.96C628.19,1481.04,618.85,1481.81,609.42,1482.39z"/>
</g>
<g>
	<path d="M569.21,1483.63c-3.73,0-7.43-0.03-11.09-0.1l0.15-8c9.15,0.17,18.59,0.12,28.08-0.13l0.22,8
		C580.74,1483.55,574.94,1483.63,569.21,1483.63z"/>
</g>
<g>
	<path d="M535.63,1482.68c-9.65-0.56-19.09-1.39-28.07-2.45l0.94-7.95c8.83,1.04,18.11,1.85,27.6,2.41L535.63,1482.68z"/>
</g>
<g>
	<path d="M484.42,1476.83c-9.76-1.75-19.13-3.85-27.84-6.26l2.13-7.71c8.48,2.34,17.6,4.39,27.13,6.09L484.42,1476.83z"/>
</g>
<g>
	<path d="M434.48,1463.33c-9.23-3.56-17.78-7.62-25.41-12.09l4.04-6.91c7.26,4.25,15.42,8.13,24.25,11.53L434.48,1463.33z"/>
</g>
<g>
	<path d="M390.05,1437.8c-7.38-6.34-13.66-13.41-18.66-21.01l6.68-4.4c4.59,6.98,10.38,13.49,17.19,19.34L390.05,1437.8z"/>
</g>
<g>
	<path d="M360.33,1393.34c-2.59-8.37-4.09-17.39-4.46-26.82l7.99-0.31c0.34,8.73,1.72,17.07,4.11,24.77L360.33,1393.34z"/>
</g>
<g>
	<path d="M366.35,1342.5l-7.74-2.04c2.34-8.87,6.19-17.35,11.45-25.21l6.65,4.45C371.95,1326.82,368.47,1334.49,366.35,1342.5z"/>
</g>
<g>
	<path d="M390.76,1303.41l-5.45-5.86c6.51-6.05,14.2-11.78,22.85-17.02l4.14,6.84C404.12,1292.33,396.88,1297.72,390.76,1303.41z"/>
</g>
<g>
	<path d="M432.21,1276.95l-3.31-7.28c8.05-3.66,16.88-7.11,26.23-10.24l2.54,7.59C448.58,1270.06,440.01,1273.4,432.21,1276.95z"/>
</g>
<g>
	<path d="M479.27,1260.57l-2.05-7.73c8.65-2.29,17.86-4.42,27.38-6.32l1.57,7.84C496.81,1256.23,487.76,1258.32,479.27,1260.57z"/>
</g>
<g>
	<path d="M529.34,1250.25l-1.23-7.9c8.9-1.39,18.2-2.63,27.64-3.7l0.9,7.95C547.32,1247.65,538.13,1248.88,529.34,1250.25z"/>
</g>
<g>
	<path d="M580.19,1244.33l-0.64-7.97c9.13-0.74,18.47-1.33,27.76-1.77l0.37,7.99C598.47,1243.01,589.22,1243.6,580.19,1244.33z"/>
</g>
<g>
	<path d="M657.8,1241.85c-0.1,0-10.53-0.34-27.15-0.03l-0.15-8c16.85-0.32,27.46,0.02,27.57,0.03L657.8,1241.85z"/>
</g>
<g>
	<g>
		<path d="M1007.86,1351.17c5.11,1.79,10.22,3.58,15.33,5.37c8.11,2.84,16.21,5.68,24.32,8.52c1.88,0.66,3.76,1.32,5.63,1.97
			c-0.35-0.35-0.7-0.7-1.05-1.05c1.79,5.07,3.58,10.15,5.36,15.22c2.85,8.09,5.7,16.17,8.55,24.26c0.65,1.85,1.31,3.71,1.96,5.56
			c0.48,1.35,2.47,1.49,2.89,0c3.16-11.22,6.32-22.44,9.49-33.66c0.45-1.6,0.9-3.2,1.35-4.8c-0.73,0.3-1.47,0.6-2.2,0.9
			c6.11,3.96,12.22,7.91,18.34,11.87c9.73,6.3,19.46,12.6,29.2,18.9c2.22,1.44,4.44,2.88,6.66,4.31c0.67,0.43,1.67,0.15,2.05-0.54
			c2.01-3.6,4.02-7.2,6.03-10.8c4.8-8.61,9.6-17.21,14.4-25.82c5.83-10.44,11.65-20.89,17.48-31.33
			c5.02-8.99,10.04-17.99,15.05-26.98c2.44-4.37,5.03-8.68,7.32-13.12c0.03-0.06,0.07-0.12,0.1-0.19c0.63-1.14-0.41-2.55-1.69-2.2
			c-1.67,0.45-3.33,0.91-5,1.36c-4.51,1.23-9.02,2.45-13.53,3.68c-6.7,1.82-13.4,3.64-20.1,5.46c-8.18,2.22-16.35,4.44-24.53,6.67
			c-8.92,2.42-17.83,4.85-26.75,7.27c-9.04,2.46-18.08,4.91-27.12,7.37c-8.43,2.29-16.86,4.58-25.29,6.87
			c-7.09,1.93-14.19,3.86-21.28,5.78c-5.13,1.39-10.25,2.79-15.38,4.18c-2.42,0.66-4.87,1.25-7.28,1.98
			c-0.1,0.03-0.21,0.06-0.31,0.08c-1.86,0.51-1.07,3.4,0.8,2.89c1.67-0.45,3.33-0.91,5-1.36c4.51-1.23,9.02-2.45,13.53-3.68
			c6.7-1.82,13.4-3.64,20.1-5.46c8.18-2.22,16.35-4.44,24.53-6.67c8.92-2.42,17.83-4.85,26.75-7.27c9.04-2.46,18.08-4.91,27.12-7.37
			c8.43-2.29,16.86-4.58,25.29-6.87c7.09-1.93,14.19-3.86,21.28-5.78c5.13-1.39,10.25-2.79,15.38-4.18
			c2.39-0.65,4.95-1.12,7.28-1.98c0.1-0.04,0.21-0.06,0.31-0.08c-0.56-0.73-1.13-1.47-1.69-2.2c-2.01,3.6-4.02,7.2-6.03,10.8
			c-4.8,8.61-9.6,17.21-14.4,25.82c-5.83,10.44-11.65,20.89-17.48,31.33c-5.02,8.99-10.04,17.99-15.05,26.98
			c-1.65,2.97-3.31,5.93-4.96,8.9c-0.76,1.36-1.79,2.77-2.36,4.23c-0.03,0.06-0.07,0.13-0.1,0.19c0.68-0.18,1.37-0.36,2.05-0.54
			c-6.11-3.96-12.22-7.91-18.34-11.87c-9.73-6.3-19.46-12.6-29.2-18.9c-2.22-1.44-4.44-2.88-6.66-4.31c-0.82-0.53-1.95,0-2.2,0.9
			c-3.16,11.22-6.32,22.44-9.49,33.66c-0.45,1.6-0.9,3.2-1.35,4.8c0.96,0,1.93,0,2.89,0c-1.81-5.15-3.63-10.3-5.44-15.45
			c-2.86-8.12-5.72-16.24-8.58-24.35c-0.61-1.72-1.11-3.53-1.83-5.21c-0.61-1.4-3.1-1.8-4.41-2.26c-7.76-2.72-15.52-5.44-23.28-8.16
			c-6.1-2.14-12.17-4.53-18.34-6.43c-0.1-0.03-0.21-0.07-0.31-0.11C1006.83,1347.63,1006.05,1350.53,1007.86,1351.17z"/>
	</g>
</g>
<g>
	<g>
		<path d="M1070.48,1411.69c8.58-7.75,17.16-15.5,25.74-23.25c1.2-1.08,2.39-2.16,3.59-3.24c1.44-1.3-0.69-3.41-2.12-2.12
			c-8.58,7.75-17.16,15.5-25.74,23.25c-1.2,1.08-2.39,2.16-3.59,3.24C1066.92,1410.87,1069.05,1412.99,1070.48,1411.69
			L1070.48,1411.69z"/>
	</g>
</g>
<g>
	<g>
		<path d="M1054.31,1366.89c4.68-2.2,9.36-4.41,14.04-6.61c11.27-5.31,22.55-10.62,33.82-15.94c13.6-6.41,27.2-12.82,40.8-19.23
			c11.75-5.54,23.51-11.08,35.26-16.62c3.87-1.83,7.75-3.65,11.62-5.48c1.8-0.85,3.81-1.56,5.51-2.6c0.07-0.05,0.16-0.08,0.24-0.11
			c-0.5-0.86-1.01-1.73-1.51-2.59c-3.81,2.43-7.61,4.86-11.42,7.29c-9.14,5.84-18.28,11.67-27.42,17.51
			c-11.02,7.03-22.03,14.07-33.05,21.1c-9.52,6.08-19.05,12.16-28.57,18.24c-4.63,2.96-9.35,5.82-13.92,8.89
			c-0.07,0.04-0.14,0.09-0.2,0.13c-1.62,1.04-0.12,3.63,1.51,2.59c3.81-2.43,7.61-4.86,11.42-7.29
			c9.14-5.84,18.28-11.67,27.42-17.51c11.02-7.03,22.03-14.07,33.05-21.1c9.52-6.08,19.05-12.16,28.57-18.24
			c4.63-2.96,9.35-5.82,13.92-8.89c0.07-0.04,0.14-0.09,0.2-0.13c1.65-1.05,0.22-3.41-1.51-2.59c-4.68,2.2-9.36,4.41-14.04,6.61
			c-11.27,5.31-22.55,10.62-33.82,15.94c-13.6,6.41-27.2,12.82-40.8,19.23c-11.75,5.54-23.51,11.08-35.26,16.62
			c-3.87,1.83-7.75,3.65-11.62,5.48c-1.83,0.86-3.73,1.64-5.51,2.6c-0.08,0.04-0.16,0.08-0.24,0.11
			C1051.05,1365.12,1052.57,1367.71,1054.31,1366.89L1054.31,1366.89z"/>
	</g>
</g>
<g>
	<g>
		<path d="M767.27,1243.39c0.46,0.61,0.62,1.27,0.49,1.97c-0.13,0.7-0.52,1.3-1.17,1.79l-7.98,6c-0.65,0.49-1.32,0.69-2.02,0.61
			c-0.7-0.08-1.28-0.42-1.74-1.04l-18.91-25.15c-0.46-0.61-0.63-1.27-0.51-1.96c0.12-0.69,0.5-1.29,1.15-1.77l7.98-6
			c0.65-0.49,1.33-0.69,2.04-0.63s1.3,0.41,1.76,1.02l5.12,6.82l-2.77,2.08l-4.96-6.59l-6.89,5.18l18.57,24.7l6.89-5.18l-5.42-7.21
			l2.77-2.08L767.27,1243.39z"/>
		<path d="M756.88,1254.28c-0.12,0-0.23-0.01-0.35-0.02c-0.84-0.09-1.54-0.51-2.08-1.23l-18.91-25.15c-0.54-0.72-0.75-1.51-0.6-2.34
			c0.14-0.82,0.59-1.52,1.34-2.09l7.98-6c0.75-0.56,1.56-0.8,2.39-0.72c0.86,0.08,1.57,0.5,2.11,1.22l5.42,7.22l-3.57,2.69
			l-4.96-6.59l-6.09,4.58l17.97,23.9l6.09-4.58l-5.42-7.21l3.57-2.68l5.89,7.83c0.55,0.73,0.74,1.52,0.58,2.37
			c-0.15,0.83-0.61,1.53-1.36,2.09l-7.98,6C758.27,1254.04,757.59,1254.28,756.88,1254.28z M746.34,1217.71
			c-0.51,0-0.99,0.18-1.47,0.54l-7.98,6c-0.55,0.41-0.86,0.89-0.96,1.46c-0.1,0.56,0.04,1.07,0.42,1.58l18.91,25.15
			c0.38,0.5,0.83,0.78,1.4,0.84c0.57,0.06,1.12-0.1,1.67-0.51l7.98-6c0.55-0.41,0.87-0.9,0.98-1.48c0.11-0.57-0.03-1.08-0.4-1.58
			l-5.29-7.04l-1.97,1.48l5.42,7.21l-7.69,5.78l-19.17-25.5l7.69-5.78l4.96,6.59l1.97-1.48l-4.82-6.42
			c-0.37-0.5-0.84-0.77-1.41-0.83C746.48,1217.71,746.41,1217.71,746.34,1217.71z"/>
	</g>
	<g>
		<path d="M785.17,1229.94c0.46,0.61,0.63,1.27,0.5,1.97c-0.12,0.7-0.51,1.29-1.16,1.78l-8.67,6.52c-0.65,0.49-1.32,0.69-2.02,0.61
			s-1.28-0.42-1.74-1.04l-18.91-25.15c-0.46-0.61-0.63-1.27-0.51-1.96c0.12-0.69,0.5-1.29,1.15-1.77l8.67-6.52
			c0.65-0.49,1.32-0.69,2.03-0.62c0.71,0.07,1.29,0.42,1.75,1.03L785.17,1229.94z M782.25,1231.78l-18.57-24.7l-7.59,5.7l18.57,24.7
			L782.25,1231.78z"/>
		<path d="M774.12,1241.33c-0.12,0-0.23-0.01-0.35-0.02c-0.84-0.1-1.54-0.51-2.08-1.23l-18.91-25.15c-0.54-0.72-0.75-1.51-0.61-2.34
			c0.14-0.82,0.59-1.52,1.34-2.09l8.67-6.52c0.75-0.56,1.55-0.8,2.38-0.72c0.85,0.09,1.55,0.5,2.1,1.23l18.91,25.15
			c0.54,0.72,0.75,1.52,0.6,2.36c-0.15,0.82-0.6,1.53-1.35,2.09l-8.67,6.52C775.5,1241.08,774.82,1241.33,774.12,1241.33z
			 M764.24,1204.24c-0.5,0-0.97,0.17-1.45,0.53l-8.67,6.52c-0.55,0.41-0.86,0.89-0.96,1.46c-0.1,0.56,0.04,1.07,0.42,1.57
			l18.91,25.15c0.38,0.5,0.83,0.78,1.4,0.84c0.58,0.07,1.12-0.1,1.66-0.51l8.67-6.52c0.55-0.41,0.86-0.89,0.97-1.47
			c0.1-0.56-0.03-1.08-0.41-1.58l-18.91-25.15c-0.38-0.5-0.84-0.77-1.4-0.83C764.39,1204.24,764.31,1204.24,764.24,1204.24z
			 M774.57,1238.18l-19.17-25.5l8.38-6.3l19.17,25.5L774.57,1238.18z M756.8,1212.88l17.97,23.9l6.79-5.1l-17.97-23.9L756.8,1212.88
			z"/>
	</g>
	<g>
		<path d="M807.01,1216.77l-2.59,1.95l-13.95-18.56c-0.2-0.26-0.68-1.1-1.45-2.51l8.54,21.92l-0.55,0.42l-18.68-14.3
			c1.15,1.15,1.82,1.85,2.01,2.1l13.95,18.56l-2.59,1.95l-22.03-29.31l2.55-1.92l19.36,15.28c0.1,0.08,0.34,0.34,0.71,0.78
			c-0.14-0.19-0.33-0.49-0.55-0.9l-9.3-22.85l2.55-1.92L807.01,1216.77z"/>
		<path d="M791.59,1228.99l-22.63-30.11l3.26-2.45l18.49,14.59l-8.88-21.81l3.26-2.45l22.63,30.11l-3.39,2.55l-13.05-17.36
			l6.89,17.68l-1.16,0.87l-15.07-11.54l13.05,17.36L791.59,1228.99z M770.35,1199.08l21.43,28.51l1.79-1.35l-13.65-18.16
			c-0.1-0.13-0.48-0.57-1.96-2.04l0.66-0.75l18.29,14l-8.36-21.46l0.9-0.42c0.95,1.73,1.29,2.29,1.42,2.45l13.65,18.16l1.79-1.35
			l-21.43-28.51l-1.85,1.39l9.16,22.49c0.19,0.34,0.36,0.62,0.49,0.79l-0.78,0.62c-0.49-0.58-0.62-0.7-0.64-0.71l-19.06-15.05
			L770.35,1199.08z"/>
	</g>
	<g>
		<path d="M813.93,1190.09c0.46,0.61,0.63,1.27,0.51,1.98c-0.12,0.71-0.5,1.3-1.15,1.79l-7.31,5.49l8.74,11.63l-2.75,2.07
			l-22.03-29.31l10.06-7.56c0.65-0.49,1.32-0.69,2.03-0.62c0.71,0.07,1.29,0.42,1.75,1.03L813.93,1190.09z M811,1191.94l-9.81-13.05
			l-6.77,5.09l9.81,13.05L811,1191.94z"/>
		<path d="M811.87,1213.75l-22.63-30.11l10.46-7.86c0.75-0.56,1.55-0.8,2.38-0.71c0.85,0.09,1.55,0.5,2.1,1.23l10.15,13.5
			c0.54,0.72,0.75,1.52,0.6,2.36c-0.14,0.83-0.59,1.54-1.34,2.1l-6.91,5.19l8.74,11.63L811.87,1213.75z M790.63,1183.84l21.43,28.51
			l1.95-1.47l-8.74-11.63l7.71-5.79c0.55-0.41,0.86-0.89,0.96-1.47c0.1-0.57-0.04-1.09-0.42-1.59l-10.15-13.5
			c-0.38-0.5-0.83-0.77-1.4-0.83c-0.58-0.06-1.13,0.11-1.68,0.52L790.63,1183.84z M804.13,1197.73l-10.41-13.85l7.57-5.69
			l10.41,13.85L804.13,1197.73z M795.12,1184.07l9.21,12.25l5.97-4.49l-9.21-12.25L795.12,1184.07z"/>
	</g>
	<g>
		<path d="M838.78,1192.89l-10.18,7.65l-22.03-29.31l10.06-7.56l1.73,2.3l-7.31,5.49l8.22,10.94l6.65-5l1.76,2.34l-6.65,5
			l8.59,11.42l7.43-5.58L838.78,1192.89z"/>
		<path d="M828.5,1201.24l-22.63-30.11l10.86-8.16l2.33,3.1l-7.31,5.49l7.62,10.14l6.65-5l2.36,3.14l-6.65,5l7.99,10.62l7.43-5.58
			l2.33,3.1L828.5,1201.24z M807.27,1171.33l21.43,28.51l9.38-7.05l-1.13-1.5l-7.43,5.58l-9.19-12.22l6.65-5l-1.16-1.54l-6.65,5
			l-8.82-11.74l7.31-5.49l-1.13-1.5L807.27,1171.33z"/>
	</g>
	<g>
		<path d="M833.45,1154.63l-4.79,3.6l20.3,27.01l-2.75,2.07l-20.3-27.01l-4.83,3.63l-1.73-2.3l12.38-9.3L833.45,1154.63z"/>
		<path d="M846.11,1188.01l-20.3-27.01l-4.83,3.63l-2.33-3.1l13.18-9.91l2.33,3.1l-4.79,3.6l20.3,27.01L846.11,1188.01z
			 M826.01,1159.6l20.3,27.01l1.95-1.47l-20.3-27.01l4.79-3.6l-1.13-1.5l-11.58,8.7l1.13,1.5L826.01,1159.6z"/>
	</g>
	<g>
		<path d="M859.89,1177.02l-2.75,2.07l-22.03-29.31l2.75-2.07L859.89,1177.02z"/>
		<path d="M857.04,1179.79l-22.63-30.11l3.55-2.67l22.63,30.11L857.04,1179.79z M835.81,1149.88l21.43,28.51l1.95-1.47l-21.43-28.51
			L835.81,1149.88z"/>
	</g>
	<g>
		<path d="M855.44,1138.11l-4.79,3.6l20.3,27.01l-2.75,2.07l-20.3-27.01l-4.83,3.63l-1.73-2.3l12.38-9.3L855.44,1138.11z"/>
		<path d="M868.09,1171.48l-20.3-27.01l-4.83,3.63l-2.33-3.1l13.18-9.91l2.33,3.1l-4.79,3.6l20.3,27.01L868.09,1171.48z
			 M847.99,1143.08l20.3,27.01l1.95-1.47l-20.3-27.01l4.79-3.6l-1.13-1.5l-11.58,8.7l1.13,1.5L847.99,1143.08z"/>
	</g>
	<g>
		<path d="M881.88,1160.5l-2.75,2.07l-22.03-29.31l2.75-2.07L881.88,1160.5z"/>
		<path d="M879.02,1163.27l-22.63-30.11l3.55-2.67l22.63,30.11L879.02,1163.27z M857.79,1133.36l21.43,28.51l1.95-1.47l-21.43-28.51
			L857.79,1133.36z"/>
	</g>
	<g>
		<path d="M898.57,1144.69c0.46,0.61,0.63,1.27,0.5,1.97c-0.12,0.7-0.51,1.29-1.16,1.78l-8.67,6.52c-0.65,0.49-1.32,0.69-2.02,0.61
			c-0.7-0.08-1.28-0.42-1.74-1.04l-18.91-25.15c-0.46-0.61-0.63-1.27-0.51-1.96s0.5-1.29,1.15-1.77l8.67-6.52
			c0.65-0.49,1.32-0.69,2.03-0.62c0.71,0.07,1.29,0.42,1.75,1.03L898.57,1144.69z M895.65,1146.54l-18.57-24.7l-7.59,5.7l18.57,24.7
			L895.65,1146.54z"/>
		<path d="M887.52,1156.09c-0.12,0-0.23-0.01-0.35-0.02c-0.84-0.1-1.54-0.51-2.08-1.23l-18.91-25.15c-0.54-0.72-0.75-1.51-0.61-2.34
			c0.14-0.82,0.59-1.52,1.34-2.09l8.67-6.52c0.75-0.56,1.55-0.8,2.38-0.72c0.85,0.09,1.55,0.5,2.1,1.23l18.91,25.15
			c0.54,0.72,0.75,1.52,0.59,2.36c-0.15,0.83-0.6,1.53-1.35,2.09l-8.67,6.52C888.9,1155.84,888.22,1156.09,887.52,1156.09z
			 M877.64,1119c-0.5,0-0.97,0.17-1.45,0.53l-8.67,6.52c-0.55,0.41-0.86,0.89-0.96,1.46c-0.1,0.56,0.04,1.07,0.42,1.58l18.91,25.15
			c0.38,0.5,0.83,0.78,1.4,0.84c0.58,0.07,1.12-0.1,1.66-0.51l8.67-6.52c0.55-0.41,0.86-0.89,0.97-1.47
			c0.1-0.56-0.03-1.08-0.41-1.58l-18.91-25.15c-0.38-0.5-0.84-0.77-1.4-0.83C877.79,1119,877.71,1119,877.64,1119z M887.97,1152.94
			l-19.17-25.5l8.38-6.3l19.17,25.5L887.97,1152.94z M870.2,1127.64l17.97,23.9l6.79-5.1l-17.97-23.9L870.2,1127.64z"/>
	</g>
	<g>
		<path d="M917.86,1133.45l-1.9,1.43l-24.48-15.33l16.2,21.56l-2.59,1.95l-22.03-29.31l2.06-1.55l24.04,15.08l-15.92-21.18
			l2.59-1.95L917.86,1133.45z"/>
		<path d="M904.99,1143.75l-22.63-30.11l2.73-2.05l22.04,13.83l-14.6-19.42l3.39-2.55l22.63,30.11l-2.58,1.94l-22.49-14.08
			l14.88,19.8L904.99,1143.75z M883.76,1113.84l21.43,28.51l1.79-1.35l-15.9-21.16l0.67-0.72l24.19,15.15l1.23-0.92l-21.43-28.51
			l-1.79,1.35l15.62,20.78l-0.67,0.72l-23.75-14.9L883.76,1113.84z"/>
	</g>
</g>
<g>
	<rect x="751.16" y="1075.27" width="4" height="104.57"/>
</g>
<g>
	<rect x="807.94" y="1250.83" width="4" height="36.57"/>
</g>
<g>
	<rect x="807.94" y="1075.27" width="4" height="62.08"/>
</g>
<g>
	<rect x="866.13" y="1207.76" width="4" height="79.63"/>
</g>
<g>
	<rect x="866.13" y="1075.27" width="4" height="18.54"/>
</g>
<g>
	<rect x="910.26" y="1175.11" width="4" height="112.29"/>
</g>
<g>
	<path d="M761.01,1288.9h-38.77v-87.8l0.6-0.45l169.56-126.88h53.74v78.13l-0.61,0.45L761.01,1288.9z M725.24,1285.9h34.78
		l183.12-135.51v-73.62H893.4L725.24,1202.6V1285.9z"/>
</g>
<g>
	<g>
		<polygon points="724.27,1219.14 722.7,1212.82 907.66,1074.1 914.15,1076.73 		"/>
	</g>
</g>
<g>
	<g>
		<polygon points="748.54,1288.61 740.96,1286.79 943.81,1135.11 945.55,1141.31 		"/>
	</g>
</g>
<g>
	<path d="M923.76,967.62l-4.87-3.5l232.74-323.97c1.51-2.95,20.87-41.23,32.01-92.15c10.6-48.44,15.73-118.6-20.04-177.72
		c-48.64-80.4-158.86-121.16-327.6-121.16v-6c171.01,0,282.96,41.75,332.75,124.08c16.27,26.91,25.76,58.2,28.19,93.01
		c1.94,27.75-0.58,57.77-7.48,89.24c-11.73,53.5-32.4,93.28-32.61,93.68l-0.22,0.36L923.76,967.62z"/>
</g>
<g>
	<rect x="838.45" y="1013.39" transform="matrix(0.5788 -0.8155 0.8155 0.5788 -456.2009 1149.5459)" width="92.5" height="6"/>
</g>
<g>
	<path d="M748.24,967.62L515.25,643.3l-0.1-0.19c-0.21-0.4-20.88-40.18-32.61-93.68c-6.9-31.47-9.42-61.5-7.48-89.24
		c2.43-34.8,11.92-66.1,28.19-93.01C553.04,284.86,664.99,243.11,836,243.11v6c-168.74,0-278.96,40.77-327.6,121.16
		c-35.76,59.12-30.64,129.28-20.04,177.72c11.14,50.92,30.5,89.21,32.01,92.15l232.74,323.97L748.24,967.62z"/>
</g>
<g>
	<rect x="784" y="970.05" transform="matrix(0.8121 -0.5834 0.5834 0.8121 -445.2016 650.1147)" width="6" height="92.77"/>
</g>
<g>
	<path d="M1137.51,663.11C1137.51,663.11,1137.51,663.11,1137.51,663.11l2.51-1.65L1137.51,663.11z M1137.51,663.1
		c-0.17-0.26-8.1-12.01-23.39-20.76c-20.51-11.73-43.92-12.82-69.59-3.23l-1.99,0.74l-1.36-1.63c-0.11-0.13-11.58-13.62-33.37-22.39
		c-20.08-8.08-53.36-13.7-97.85,5.42l-1.36,0.58l-1.29-0.72c-0.24-0.13-24.31-13.44-58.02-19.84
		c-30.92-5.86-76.57-6.93-118.45,21.25l-1.43,0.97l-1.56-0.76c-0.19-0.09-18.91-9.11-43.92-12.58
		c-33.22-4.61-61.21,2.23-83.18,20.32l-1.4,1.15l-1.67-0.7c-0.36-0.15-36.52-15.15-60.19-5.31c-7.91,3.29-13.59,9.08-16.89,17.24
		l-5.56-2.25c3.93-9.7,10.71-16.61,20.17-20.53c23.21-9.63,55.37,1.65,63.13,4.66c22.86-18.14,52.76-25.22,86.61-20.48
		c21.97,3.07,38.85,10.08,43.97,12.38c43.24-28.4,89.97-27.24,121.69-21.2c30.51,5.81,52.78,16.83,58.33,19.75
		c45.88-19.32,80.44-13.3,101.43-4.78c18.81,7.64,30.18,18.37,34,22.4c33.32-11.81,58.03-4.14,72.99,4.49
		c16.53,9.54,24.83,22,25.18,22.53L1137.51,663.1z"/>
</g>
<g>
	<g>
		<polygon points="853.89,1050.91 848.48,1048.32 877.24,988.34 886.81,982.27 		"/>
	</g>
</g>
<g>
	<path d="M893.27,963.67l-3.63-1.69l151.95-326.36c34.47-136.68,24.4-240.04-29.93-307.23c-35.24-43.58-82.98-63.09-116.82-71.78
		c-36.77-9.44-65.56-8.52-65.85-8.51c-110.54,6.5-186.69,42.1-226.31,105.8c-36.08,58.02-34.72,129.25-27.22,178.79
		c7.99,52.77,24.42,92.74,25.2,94.61l170.08,331.44l-3.56,1.83L597.03,629.01l-0.03-0.07c-0.17-0.41-17.28-41.35-25.5-95.64
		c-4.83-31.91-5.7-62.14-2.58-89.85c3.91-34.72,14.12-65.55,30.36-91.66c40.35-64.87,117.57-101.1,229.52-107.69
		c0.33-0.01,29.59-0.96,66.9,8.59c34.46,8.83,83.09,28.69,119.05,73.14c55.21,68.25,65.53,172.87,30.68,310.94l-0.13,0.35
		L893.27,963.67z"/>
</g>
<g>
	<rect x="793.23" y="968.76" transform="matrix(0.8838 -0.4678 0.4678 0.8838 -381.8836 490.2682)" width="6" height="90.61"/>
</g>
<g>
	<path d="M826.05,1054.55l-98.86-434.17l-0.01-0.11c-0.09-0.78-8.7-79.19-0.69-164.15c4.71-49.98,14.17-92.44,28.11-126.21
		c17.53-42.46,42.25-71.27,73.48-85.61l0.3-0.14l0.33-0.03c0.71-0.07,17.58-1.61,36.59,17.19c32.97,32.6,67.62,121.07,45.47,357.37
		l-0.01,0.12l-67.36,435.61l-3.95-0.61l67.35-435.55c9.98-106.52,9.18-192.45-2.39-255.42c-8.49-46.23-22.52-79.36-41.7-98.47
		c-16.32-16.27-31.03-16.38-33.29-16.29c-30.12,13.96-54.04,41.99-71.11,83.32c-13.79,33.39-23.15,75.46-27.83,125.03
		c-7.84,83.11,0.3,159.92,0.67,163.28l98.81,433.95L826.05,1054.55z"/>
</g>
<g>
	<path d="M833.27,1056.31l0.81-2.77c0.15-0.51,15.43-51.65,44.32-82.86c8.66-9.35,17.9-13.71,27.48-12.94
		c16.82,1.35,28.48,18,29.53,19.55c1.06,1.3,11.51,14.5,9.92,29.86c-0.89,8.6-5.4,16.16-13.39,22.46
		c-27.01,21.3-93.01,26.29-95.8,26.49L833.27,1056.31z M903.76,961.66c-7.67,0-15.2,3.94-22.42,11.74
		c-24.38,26.34-38.92,67.41-42.53,78.46c13.28-1.24,67.76-7.33,90.66-25.38c7.1-5.6,11.1-12.23,11.88-19.71
		c1.48-14.13-8.98-26.86-9.08-26.99l-0.13-0.17c-0.11-0.17-11.27-16.65-26.59-17.87C904.95,961.69,904.36,961.66,903.76,961.66z"/>
</g>
<g>
	<path d="M831.68,1057.38l2.6-4.31c1.51-2.5,37.06-61.26,46.29-69.13c1.51-1.29,2.94-2.66,4.33-3.98c4.75-4.54,9.23-8.84,15.52-8.55
		c5.92,0.26,12.47,4.69,20.62,13.94c1.29,1.19,13.63,12.93,11.53,25.59c-1.25,7.51-7.25,13.63-17.85,18.17
		c-34.05,14.59-77.75,26.81-78.19,26.93L831.68,1057.38z M899.88,975.4c-4.4,0-8.03,3.46-12.21,7.46c-1.42,1.36-2.9,2.77-4.5,4.13
		c-6.54,5.58-29.5,41.94-42.81,63.79c12.35-3.61,45.67-13.72,72.78-25.34c9.26-3.97,14.47-9.06,15.48-15.14
		c1.82-10.91-10.23-21.95-10.36-22.06l-0.16-0.16c-7.31-8.32-13.16-12.46-17.86-12.67C900.13,975.4,900,975.4,899.88,975.4z"/>
</g>
<g>
	<path d="M838.73,1056.31l-2.88-0.21c-2.8-0.2-68.79-5.19-95.8-26.49c-7.99-6.3-12.49-13.86-13.39-22.46
		c-1.59-15.35,8.86-28.56,9.92-29.86c1.05-1.55,12.7-18.2,29.52-19.55c9.58-0.76,18.83,3.58,27.48,12.94
		c28.89,31.21,44.17,82.34,44.32,82.86L838.73,1056.31z M768.24,961.66c-0.59,0-1.19,0.02-1.79,0.07
		c-15.33,1.22-26.48,17.7-26.59,17.87l-0.13,0.17c-0.11,0.13-10.56,12.86-9.08,26.99c0.78,7.48,4.78,14.11,11.88,19.71
		c22.91,18.06,77.38,24.15,90.66,25.38c-3.61-11.05-18.15-52.11-42.53-78.46C783.44,965.6,775.91,961.66,768.24,961.66z"/>
</g>
<g>
	<path d="M840.32,1057.38l-4.85-1.35c-0.44-0.12-44.14-12.33-78.19-26.93c-10.6-4.54-16.61-10.66-17.85-18.17
		c-2.1-12.66,10.24-24.4,11.53-25.59c8.15-9.25,14.7-13.68,20.62-13.94c6.3-0.29,10.76,4.01,15.52,8.55
		c1.39,1.32,2.82,2.69,4.33,3.98c9.23,7.87,44.78,66.63,46.29,69.13L840.32,1057.38z M772.12,975.4c-0.12,0-0.24,0-0.37,0.01
		c-4.71,0.21-10.55,4.35-17.86,12.67l-0.16,0.16c-0.12,0.11-12.17,11.15-10.36,22.06c1.01,6.08,6.22,11.17,15.48,15.14
		c27.11,11.62,60.44,21.73,72.78,25.34c-13.32-21.85-36.27-58.21-42.81-63.79c-1.6-1.36-3.07-2.77-4.5-4.13
		C780.15,978.86,776.52,975.4,772.12,975.4z"/>
</g>
<g>
	<path d="M1249.03,241.85c0,0,43.74-34.84,95.61-17.42c0,0-70.06-3.1-90.58,37.94l-17.03,2.32c0,0-18.97-64.26-94.45-32.13
		C1142.58,232.56,1192.52,189.98,1249.03,241.85z"/>
</g>
<g>
	<path d="M336.65,405.4c0,0,13.16-31.35,44.71-22.26c0,0-22.45-18.58-47.23,12.39c0,0-39.48-29.03-58.45,7.35
		C275.68,402.88,297.35,369.98,336.65,405.4z"/>
</g>
<g>
	<g>
		<path d="M165.81,739.74c4.67,0.04,9.34,0.08,14.02,0.12c12.27,0.1,24.54,0.2,36.82,0.3c17.15,0.14,34.31,0.28,51.46,0.43
			c19.62,0.16,39.24,0.32,58.85,0.49c19.39,0.16,38.77,0.32,58.16,0.48c16.5,0.14,32.99,0.27,49.49,0.41
			c11.07,0.09,22.14,0.18,33.21,0.28c2.69,0.02,5.38,0.04,8.08,0.07c1.46,0.01,2.35-0.13,3.68-0.88
			c17.35-9.9,15.61-35.92,9.44-51.78c-3.63-9.31-10.63-17.07-20.95-18.34c-6.94-0.85-14.71,1.22-20.05,5.81
			c-1.72,1.48-3.4,3.52-3.44,5.9c1,0,2,0,3,0c-0.38-3.28-1.02-6.54-1.72-9.77c-1.7-7.83-4.01-15.53-6.88-23.01
			c-3.83-9.99-8.65-19.62-14.72-28.44c-6.89-10.03-15.35-18.95-25.34-25.93c-11.43-7.98-24.68-13.08-38.43-15.25
			c-15.3-2.41-31.6-1.98-46.48,2.55c-11.51,3.5-22.09,9.73-30.41,18.45c-7.03,7.38-12.29,16.23-16.03,25.69
			c-3.03,7.68-5.05,15.76-6.19,23.93c-0.62,4.41-1.33,9.14-1.05,13.61c0.01,0.21,0,0.42,0.01,0.62c0.93-0.25,1.86-0.5,2.8-0.76
			c-3.57-5.64-8.57-10.64-13.71-14.82c-11.1-9.02-24.77-14.46-39.18-14.24c-9.8,0.15-19.37,2.79-28.25,6.84
			c-9.91,4.52-19.6,10.7-26.87,18.9c-5.32,6.01-9.25,13.24-10.64,21.19c-1.23,7.06-0.57,14.28,1.34,21.16
			c3.32,11.99,10.04,22.54,17,32.71c0.58,0.85,1.16,1.69,1.73,2.54c1.07,1.6,3.67,0.1,2.59-1.51c-6.19-9.28-12.63-18.4-16.59-28.92
			c-2.34-6.23-3.85-12.82-3.71-19.5c0.16-7.41,2.51-14.52,6.63-20.67c5.56-8.31,13.83-14.53,22.43-19.41
			c8.83-5.01,18.54-8.83,28.68-9.97c14.33-1.6,28.34,2.47,39.96,10.89c4.04,2.93,7.75,6.33,11.08,10.05
			c1.89,2.11,3.18,3.75,4.72,5.96c0.07,0.1,0.14,0.2,0.2,0.31c0.77,1.21,2.84,0.79,2.8-0.76c-0.09-3.02,0.14-6.07,0.43-9.07
			c0.68-7.11,2.1-14.36,4.26-21.35c2.8-9.05,6.92-17.71,12.6-25.31c6.63-8.85,15.44-15.87,25.5-20.44
			c13.37-6.07,28.45-7.67,42.99-6.88c14.27,0.77,28.37,4.39,40.88,11.39c10.6,5.93,19.78,14.09,27.32,23.59
			c6.73,8.47,12.12,17.98,16.43,27.89c3.41,7.84,6.12,16,8.18,24.3c1.08,4.35,2.01,8.75,2.63,13.19c-0.05-0.38-0.01-0.1,0.03,0.24
			c0.22,1.87,2.96,1.98,3,0c0.01-0.51-0.04,0.03,0.04-0.37c0.04-0.19,0.11-0.38,0.17-0.57c-0.11,0.3,0.17-0.34,0.24-0.45
			c0.14-0.24,0.29-0.48,0.46-0.71c0.49-0.67,1.64-1.74,2.51-2.37c2.61-1.9,5.67-3.15,8.81-3.85c8.18-1.84,16.37,0.83,21.64,7.4
			c4.01,5,5.98,11.3,7.3,17.48c1.38,6.43,2.07,13.19,1.1,19.74c-1.03,6.99-4.32,14.18-9.91,18.28c-0.68,0.5-1.39,0.96-2.12,1.37
			c-0.23,0.13-0.47,0.24-0.7,0.36c-0.27,0.14-0.54,0.18-0.06,0.04c0.72-0.21-0.02-0.05-0.4-0.05c-2.22-0.02-4.44-0.04-6.66-0.06
			c-10.11-0.08-20.21-0.17-30.32-0.25c-15.63-0.13-31.27-0.26-46.9-0.39c-18.71-0.16-37.43-0.31-56.14-0.46
			c-19.39-0.16-38.79-0.32-58.18-0.48c-17.56-0.15-35.11-0.29-52.67-0.44c-13.22-0.11-26.44-0.22-39.66-0.33
			c-6.49-0.05-12.98-0.11-19.46-0.16c-0.28,0-0.57,0-0.85-0.01C163.88,736.72,163.87,739.72,165.81,739.74z"/>
	</g>
</g>
<g>
	<g>
		<path d="M1178.45,946.7c4.95,0,9.9,0,14.85,0c11.41,0,22.81,0,34.22,0c12.66,0,25.32,0,37.98,0c8.83,0,17.66,0,26.49,0
			c1.36,0,2.78,0.11,4.14,0c1.23-0.1,2.5-0.71,3.61-1.19c6.25-2.69,11.36-7.69,14.65-13.6c6.62-11.91,6.19-26.5,3.87-39.52
			c-1.77-9.95-4.52-20.12-9.07-29.18c-3.05-6.09-7.29-12-13.28-15.49c-9.44-5.49-20.46-2.8-29.42,2.29
			c-6.78,3.85-12.96,8.99-18.27,14.69c-0.31,0.33-0.61,0.66-0.9,0.99c0.84,0.49,1.67,0.97,2.51,1.46c0.42-2.63,0.61-5.3,0.73-7.95
			c0.28-6.09,0.02-12.19-0.86-18.23c-1.06-7.37-3.14-14.66-6.7-21.23c-3.9-7.18-9.7-13.25-16.93-17.11
			c-9.46-5.06-20.47-6.27-31.04-5.58c-7.6,0.5-15.12,1.92-22.49,3.83c-8.03,2.08-15.91,4.75-23.44,8.25
			c-10.95,5.08-21.27,12.11-28.82,21.63c-5.59,7.06-9.56,15.29-11.4,24.12c-1.4,6.7-1.66,13.62-0.86,20.42
			c0.44,3.7,1.1,7.43,2.26,10.98c0.05,0.16,0.11,0.33,0.17,0.49c0.84-0.49,1.67-0.97,2.51-1.46c-2.61-2.09-5.54-3.82-8.52-5.32
			c-6.01-3.03-12.66-5.13-19.44-5.16c-8.69-0.04-16.66,3.73-22.59,10.02c-3.99,4.24-7.1,9.34-9.55,14.6
			c-2.09,4.49-3.65,9.22-4.16,14.16c-0.83,7.95,1.74,15.75,7.46,21.39c5.97,5.87,14.22,9.02,22.33,10.52
			c9.08,1.68,18.4,1.19,27.59,1.19c10.03,0,20.07,0,30.1,0c13.87,0,27.75,0,41.62,0C1177.99,946.7,1178.22,946.7,1178.45,946.7
			c1.93,0,1.93-3,0-3c-11.08,0-22.16,0-33.24,0c-9.69,0-19.38,0-29.06,0c-9.02,0-18.09,0.27-27.11-0.05
			c-14.62-0.51-34.05-5.96-37.17-22.63c-1.75-9.37,2.42-19.04,7.21-26.86c4.71-7.7,11.58-14.16,20.68-15.89
			c10.72-2.04,22.23,2.63,30.76,8.94c0.14,0.1,0.27,0.21,0.41,0.31c0.08,0.06-0.36-0.29-0.12-0.1c1.04,0.83,3.08,0.11,2.51-1.46
			c-0.85-2.32-1.37-4.79-1.8-7.22c-0.1-0.57-0.2-1.15-0.29-1.73c-0.05-0.31-0.09-0.61-0.13-0.92c0.05,0.4-0.02-0.12-0.02-0.19
			c-0.02-0.18-0.05-0.36-0.07-0.55c-0.17-1.41-0.29-2.83-0.37-4.25c-0.18-3.32-0.1-6.65,0.25-9.95c0.81-7.71,3.4-15.65,7.51-22.49
			c5.57-9.27,13.82-16.59,23.04-22.12c13.17-7.89,28.41-12.73,43.5-15.3c11.23-1.91,23.23-2.3,34.11,1.55
			c7.56,2.67,14.15,7.64,18.68,14.13c4.24,6.07,6.74,12.89,8.25,20.12c1.26,6.07,1.75,12.25,1.68,18.63
			c-0.03,2.26-0.13,4.51-0.31,6.77c-0.06,0.77-0.13,1.54-0.22,2.31c-0.03,0.29-0.06,0.57-0.1,0.86c-0.04,0.36-0.09,0.66-0.03,0.24
			c-0.02,0.16-0.05,0.33-0.07,0.49c-0.21,1.32,1.42,2.72,2.51,1.46c3.65-4.21,8.03-8.03,12.47-11.26
			c7.44-5.41,17.06-10.5,26.47-8.55c5.45,1.13,9.92,4.55,13.33,8.85c5.66,7.11,8.64,16.1,11.01,24.75
			c3.88,14.12,6.48,30.31,1.12,44.42c-1.51,3.98-3.73,7.61-6.56,10.58c-2.2,2.31-4.18,3.84-7.02,5.35c-0.5,0.27-1.01,0.52-1.52,0.75
			c-0.16,0.07-0.83,0.35-0.36,0.16c-0.21,0.09-0.43,0.18-0.65,0.26c-0.56,0.21-1.12,0.37-1.69,0.56c-0.65,0.22,0.32,0.07-0.08,0.02
			c-0.58-0.07-1.21,0-1.79,0c-7.54,0-15.09,0-22.63,0c-12.14,0-24.28,0-36.41,0c-11.83,0-23.66,0-35.49,0c-6.74,0-13.47,0-20.21,0
			c-0.32,0-0.65,0-0.97,0C1176.52,943.7,1176.52,946.7,1178.45,946.7z"/>
	</g>
</g>
<g>
	<g>
		<path d="M418.71,1005.03c4.49,0,8.97,0,13.46,0c11.43,0,22.87,0,34.3,0c15.34,0,30.69,0,46.03,0c16.21,0,32.43,0,48.64,0
			c14.05,0,28.09,0,42.14,0c8.84,0,17.69,0,26.53,0c1.51,0,3.05,0.09,4.56,0c1.77-0.1,3.7-1.28,5.21-2.1
			c4.27-2.3,7.99-5.56,10.84-9.47c4.27-5.85,6.15-13.08,6.27-20.26c0.19-11.63-3.65-23.5-8.79-33.81
			c-4.01-8.03-10.15-16.58-19.4-18.76c-11.99-2.83-23.54,5.87-31.09,14.28c-0.58,0.65-1.17,1.31-1.7,2
			c0.85,0.35,1.71,0.71,2.56,1.06c-0.03-2.17-0.32-4.35-0.62-6.5c-0.71-4.94-1.92-9.81-3.66-14.48c-2.29-6.16-5.48-11.96-9.77-16.95
			c-5-5.83-11.44-10.22-18.64-12.89c-9.48-3.52-19.91-3.92-29.87-2.74c-6.82,0.8-13.54,2.3-20.12,4.24
			c-7.7,2.28-15.3,5.03-22.59,8.42c-9.99,4.65-19.88,10.73-26.9,19.38c-4.63,5.7-7.77,12.39-8.59,19.73
			c-0.59,5.27,0.12,10.69,1.8,15.71c0.92,2.75,2.07,5.77,3.78,8.16c0.08,0.11,0.15,0.24,0.23,0.35c0.79-0.61,1.57-1.21,2.36-1.82
			c-3.97-4.5-9.27-8.17-14.55-10.93c-11.26-5.87-24.24-7.19-36.25-2.75c-7.31,2.7-13.86,7.13-19.75,12.19
			c-4.51,3.87-8.65,8.31-11.76,13.39c-4.45,7.28-6.83,16.98-1.32,24.4c6.78,9.14,20.18,10.55,30.65,10.4
			C414.72,1005.28,416.72,1005.18,418.71,1005.03c1.91-0.14,1.93-3.14,0-3c-6.79,0.5-13.75,0.5-20.41-1.05
			c-4.36-1.01-8.79-2.72-12.07-5.87c-5.88-5.65-5.1-13.91-1.58-20.73c2.48-4.8,6-8.98,9.9-12.69c5.13-4.88,11.03-9.25,17.43-12.3
			c11.24-5.36,23.97-5.47,35.29-0.29c6.09,2.78,11.38,6.68,16.09,11.38c0.08,0.08,0.15,0.16,0.22,0.24
			c1.11,1.26,3.33-0.41,2.36-1.82c-0.31-0.45-0.59-0.93-0.86-1.4c-0.31-0.54-0.6-1.1-0.88-1.65c-0.17-0.34-0.34-0.69-0.5-1.04
			c-0.08-0.18-0.17-0.37-0.25-0.55c-0.06-0.12-0.29-0.66-0.21-0.49c-1.67-3.95-2.79-8.78-2.88-13.12
			c-0.14-6.23,1.55-12.27,4.85-17.71c4.95-8.16,12.79-14.22,20.95-18.92c6.07-3.49,12.5-6.33,19.06-8.75
			c7.2-2.65,14.58-4.91,22.1-6.46c10.41-2.14,21.42-2.95,31.85-0.46c7.37,1.76,14.24,5.26,19.74,10.45
			c4.69,4.43,8.21,9.78,10.86,15.71c1.04,2.33,2.06,5.15,2.85,7.84c0.68,2.32,1.24,4.69,1.68,7.07c0.18,0.99,0.34,1.97,0.49,2.97
			c0.02,0.12,0.03,0.25,0.05,0.37c0.04,0.28-0.04-0.31-0.01-0.04c0.03,0.23,0.06,0.46,0.09,0.69c0.05,0.38,0.09,0.77,0.13,1.15
			c0.1,1.01,0.17,2.01,0.23,3.02c0.01,0.13,0.01,0.27,0.01,0.4c0.02,1.17,1.72,2.14,2.56,1.06c1.91-2.46,4.16-4.69,6.47-6.75
			c4.37-3.89,9.54-7.38,15.37-8.71c3.03-0.69,6.22-0.66,9.23,0.28c3.64,1.13,6.74,3.5,9.29,6.27c3.97,4.31,6.79,9.65,9.06,15.01
			c2.41,5.67,4.36,11.58,5.5,17.64c1.48,7.86,1.5,16.44-1.85,23.86c-2.17,4.81-5.72,9-9.8,11.83c-1.48,1.03-3.05,1.94-4.69,2.7
			c-0.27,0.12-0.54,0.24-0.81,0.36c0.5-0.21-0.32,0.12-0.49,0.19c-0.29,0.11-0.64,0.17-0.91,0.32c-0.35,0.2,0.33,0.02,0.19-0.01
			c-0.14-0.03-0.3,0-0.44,0c-0.7-0.01-1.41,0-2.11,0c-7.65,0-15.3,0-22.95,0c-13.18,0-26.35,0-39.53,0c-15.8,0-31.6,0-47.4,0
			c-15.52,0-31.05,0-46.57,0c-12.35,0-24.69,0-37.04,0c-6.27,0-12.54,0-18.8,0c-0.28,0-0.55,0-0.83,0
			C416.78,1002.03,416.78,1005.03,418.71,1005.03z"/>
	</g>
</g>
</svg>
